<svg xmlns="http://www.w3.org/2000/svg" width="263" height="76" fill="none" xmlns:v="https://vecta.io/nano"><g filter="url(#A)"><rect x="4" width="255" height="68" rx="25" fill="#fff" shape-rendering="crispEdges"/><rect x="5.5" y="1.5" width="252" height="65" rx="23.5" stroke="#fff" stroke-width="3" shape-rendering="crispEdges"/><path d="M29.138 35.95l-6.825-10.3h2.725l5.5 8.425h-1.225l5.525-8.425h2.675l-6.875 10.3h-1.5zm-.4 7.05v-8.6h2.35V43h-2.35zm12.864.25c-1.167 0-2.217-.275-3.15-.825a6.19 6.19 0 0 1-2.225-2.225c-.55-.95-.825-2.008-.825-3.175 0-1.15.275-2.183.825-3.1a6.19 6.19 0 0 1 2.225-2.225c.933-.55 1.983-.825 3.15-.825 1.15 0 2.192.275 3.125.825a5.94 5.94 0 0 1 2.25 2.2c.55.933.825 1.975.825 3.125 0 1.167-.275 2.225-.825 3.175a6.13 6.13 0 0 1-2.25 2.225c-.933.55-1.975.825-3.125.825zm0-2.175c.75 0 1.417-.175 2-.525s1.042-.825 1.375-1.425c.333-.617.5-1.317.5-2.1 0-.767-.175-1.45-.525-2.05a3.58 3.58 0 0 0-1.375-1.4c-.567-.35-1.225-.525-1.975-.525s-1.417.175-2 .525c-.583.333-1.042.8-1.375 1.4s-.5 1.283-.5 2.05c0 .783.167 1.483.5 2.1.333.6.792 1.075 1.375 1.425s1.25.525 2 .525zm13.535 2.175c-.983 0-1.867-.217-2.65-.65a4.8 4.8 0 0 1-1.8-1.85c-.433-.783-.65-1.692-.65-2.725v-6.9h2.25v6.8c0 .65.108 1.217.325 1.7.233.467.567.825 1 1.075s.942.375 1.525.375c.883 0 1.575-.275 2.075-.825.5-.567.75-1.342.75-2.325v-6.8h2.25v6.9c0 1.033-.217 1.942-.65 2.725a4.8 4.8 0 0 1-1.8 1.85c-.75.433-1.625.65-2.625.65zm8.091-.25V31.125h2.25V43h-2.25zm2.25-6.775l-.85-.375c0-1.517.35-2.725 1.05-3.625s1.708-1.35 3.025-1.35c.6 0 1.142.108 1.625.325.483.2.933.542 1.35 1.025l-1.475 1.525c-.25-.267-.525-.458-.825-.575s-.65-.175-1.05-.175c-.833 0-1.517.267-2.05.8s-.8 1.342-.8 2.425zm17.199 7.025c-.667 0-1.3-.083-1.9-.25a6.87 6.87 0 0 1-1.625-.75c-.5-.333-.933-.725-1.3-1.175l1.45-1.45c.433.533.933.933 1.5 1.2.567.25 1.2.375 1.9.375s1.242-.117 1.625-.35c.383-.25.575-.592.575-1.025s-.158-.767-.475-1c-.3-.25-.692-.45-1.175-.6l-1.55-.475a9.44 9.44 0 0 1-1.525-.625c-.483-.25-.883-.592-1.2-1.025-.3-.433-.45-1.008-.45-1.725s.175-1.333.525-1.85c.35-.533.833-.942 1.45-1.225.633-.283 1.392-.425 2.275-.425.933 0 1.758.167 2.475.5a4.25 4.25 0 0 1 1.8 1.45l-1.45 1.45a3.33 3.33 0 0 0-1.25-1c-.483-.233-1.033-.35-1.65-.35-.65 0-1.15.117-1.5.35a1.04 1.04 0 0 0-.5.925c0 .4.15.708.45.925s.692.4 1.175.55l1.55.475a7.16 7.16 0 0 1 1.525.625c.483.267.875.625 1.175 1.075.317.45.475 1.042.475 1.775 0 1.117-.4 2-1.2 2.65-.783.65-1.842.975-3.175.975zm8.719-.25V26.15h2.25V43h-2.25zm-2.925-9.825v-2.05h8.1v2.05h-8.1zm14.204 9.925l-5.15-11.975h2.5l3.825 9.375h-.8l4.025-9.375h2.5l-5.55 11.975h-1.35zm-3.4 4.875l3.5-7.175 1.25 2.3-2.25 4.875h-2.5zM111.324 43V25.15h2.25V43h-2.25zm11.042.25c-1.184 0-2.25-.267-3.2-.8a6.13 6.13 0 0 1-2.25-2.225c-.55-.933-.825-1.992-.825-3.175 0-1.167.266-2.217.8-3.15a6.05 6.05 0 0 1 2.2-2.2c.933-.55 1.975-.825 3.125-.825 1.1 0 2.066.25 2.9.75a5.15 5.15 0 0 1 1.975 2.075c.483.883.725 1.883.725 3l-.025.55c-.017.183-.05.4-.1.65h-10.025v-1.875h8.825l-.825.725c0-.8-.142-1.475-.425-2.025-.284-.567-.684-1-1.2-1.3-.517-.317-1.142-.475-1.875-.475-.767 0-1.442.167-2.025.5s-1.034.8-1.35 1.4-.475 1.308-.475 2.125c0 .833.166 1.567.5 2.2a3.61 3.61 0 0 0 1.425 1.45c.616.333 1.325.5 2.125.5a4.63 4.63 0 0 0 1.825-.35c.566-.233 1.05-.583 1.45-1.05l1.45 1.475a5.52 5.52 0 0 1-2.1 1.525c-.817.35-1.692.525-2.625.525zm8.028 2.5l1.55-2.975.8-.2c-.083.183-.192.333-.325.45a.61.61 0 0 1-.45.175c-.35 0-.675-.142-.975-.425-.283-.3-.425-.667-.425-1.1 0-.483.158-.883.475-1.2.317-.333.717-.5 1.2-.5a1.58 1.58 0 0 1 1.15.5c.333.317.5.717.5 1.2 0 .183-.042.408-.125.675-.067.25-.208.575-.425.975l-1.65 3.125-1.3-.7zm15.86-2.65l-5.15-11.975h2.5l3.825 9.375h-.8l4.025-9.375h2.5l-5.55 11.975h-1.35zm-3.4 4.875l3.5-7.175 1.25 2.3-2.25 4.875h-2.5zm17.108-4.725c-1.167 0-2.217-.275-3.15-.825s-1.675-1.292-2.225-2.225c-.55-.95-.825-2.008-.825-3.175 0-1.15.275-2.183.825-3.1.55-.933 1.291-1.675 2.225-2.225s1.983-.825 3.15-.825c1.15 0 2.191.275 3.125.825a5.94 5.94 0 0 1 2.25 2.2c.55.933.825 1.975.825 3.125 0 1.167-.275 2.225-.825 3.175a6.13 6.13 0 0 1-2.25 2.225c-.934.55-1.975.825-3.125.825zm0-2.175c.75 0 1.416-.175 2-.525a3.77 3.77 0 0 0 1.375-1.425c.333-.617.5-1.317.5-2.1 0-.767-.175-1.45-.525-2.05a3.59 3.59 0 0 0-1.375-1.4c-.567-.35-1.225-.525-1.975-.525s-1.417.175-2 .525c-.584.333-1.042.8-1.375 1.4s-.5 1.283-.5 2.05c0 .783.166 1.483.5 2.1.333.6.791 1.075 1.375 1.425s1.25.525 2 .525zm13.535 2.175c-.983 0-1.867-.217-2.65-.65-.767-.45-1.367-1.067-1.8-1.85s-.65-1.692-.65-2.725v-6.9h2.25v6.8c0 .65.108 1.217.325 1.7.233.467.567.825 1 1.075s.942.375 1.525.375c.883 0 1.575-.275 2.075-.825.5-.567.75-1.342.75-2.325v-6.8h2.25v6.9c0 1.033-.217 1.942-.65 2.725s-1.033 1.4-1.8 1.85c-.75.433-1.625.65-2.625.65zm8.09-.25V31.125h2.251V43h-2.251zm2.251-6.775l-.85-.375c0-1.517.35-2.725 1.05-3.625s1.708-1.35 3.025-1.35c.6 0 1.141.108 1.625.325.483.2.933.542 1.35 1.025l-1.475 1.525c-.25-.267-.525-.458-.825-.575s-.65-.175-1.05-.175c-.834 0-1.517.267-2.05.8s-.8 1.342-.8 2.425zM200.661 43l-4.7-11.875h2.35l3.4 9.25h-.75l3.375-9.25h1.3l3.375 9.25h-.75l3.4-9.25h2.35L209.336 43h-1.325l-3.425-8.975h.825L201.961 43h-1.3zm20.059.25c-1.084 0-2.067-.267-2.95-.8-.884-.55-1.584-1.292-2.1-2.225-.5-.933-.75-1.983-.75-3.15s.25-2.217.75-3.15a6.05 6.05 0 0 1 2.075-2.225c.883-.55 1.875-.825 2.975-.825.9 0 1.7.192 2.4.575a4.43 4.43 0 0 1 1.725 1.55c.433.65.675 1.408.725 2.275v3.575c-.05.85-.292 1.608-.725 2.275a4.43 4.43 0 0 1-1.7 1.575c-.7.367-1.509.55-2.425.55zm.375-2.125c1.116 0 2.016-.375 2.7-1.125.683-.767 1.025-1.742 1.025-2.925 0-.817-.159-1.525-.475-2.125-.3-.617-.734-1.092-1.3-1.425-.567-.35-1.225-.525-1.975-.525s-1.417.175-2 .525c-.567.35-1.017.833-1.35 1.45-.317.6-.475 1.292-.475 2.075 0 .8.158 1.508.475 2.125.333.6.791 1.075 1.375 1.425s1.25.525 2 .525zM224.67 43v-3.2l.425-2.9-.425-2.875v-2.9h2.275V43h-2.275zm9.45.1l-5.15-11.975h2.5l3.825 9.375h-.8l4.025-9.375h2.5L235.47 43.1h-1.35zm-3.4 4.875l3.5-7.175 1.25 2.3-2.25 4.875h-2.5z" fill="#000"/></g><defs><filter id="A" x="0" y="0" width="263" height="76" filterUnits="userSpaceOnUse" color-interpolation-filters="sRGB"><feFlood flood-opacity="0" result="A"/><feColorMatrix in="SourceAlpha" values="0 0 0 0 0 0 0 0 0 0 0 0 0 0 0 0 0 0 127 0" result="B"/><feOffset dy="4"/><feGaussianBlur stdDeviation="2"/><feComposite in2="B" operator="out"/><feColorMatrix values="0 0 0 0 0 0 0 0 0 0 0 0 0 0 0 0 0 0 0.25 0"/><feBlend in2="A"/><feBlend in="SourceGraphic"/></filter></defs></svg>