<svg xmlns="http://www.w3.org/2000/svg" viewBox="0 0 500 500" xmlns:v="https://vecta.io/nano"><style><![CDATA[.B{fill:#263238}.C{stroke-miterlimit:10}.D{fill:#fff}.E{stroke:#263238}.F{stroke-linejoin:round}.G{fill:#92e3a9}.H{stroke-linecap:round}]]></style><path d="M159.461 450.048c4.49 4.736 9.383 9.38 14.63 13.853h220.64c24.327-23.135 47.362-56.329 67.541-102.221 0 0 35.739-90.488 27.415-169.815S429.272 49.846 355.472 36.521s-139.397 59.862-221.775 85.236-142.67 93.405-121.018 184.64 82.219 75.545 146.782 143.651z" class="B"/><g fill="#c2c2c2"><path d="M367.227 163.347c3.209 1.402 11.059 1.225 11.065 1.225.081-.002-1.687-5.139-1.836-5.45-1.723-3.603-7.169-9.552-11.601-8.953-3.193.432-4.968 3.627-4.247 6.633.736 3.07 3.885 5.351 6.619 6.545zm79.399 1.727c.069.044 1.427-5.217 1.475-5.559.551-3.955-.71-11.922-4.737-13.867-2.901-1.401-6.144.284-7.201 3.189-1.08 2.967.289 6.607 1.91 9.111 1.903 2.94 8.548 7.123 8.553 7.126z"/><path d="M470.055 136.628c-4.447-.479-9.73 5.615-11.355 9.263-.14.316-1.77 5.498-1.687 5.498l.095-.001a131.32 131.32 0 0 0-2.684 3.139c-1.739 2.137-3.685 4.567-5.624 7.355-1.945 2.781-3.98 5.857-5.831 9.29-1.86 3.439-3.641 7.151-4.982 11.214-.015.046-.025.096-.04.142.023-1.31-.035-4.975-.072-5.256-.513-3.96-3.833-11.311-8.23-12.124-3.168-.585-5.852 1.897-6.104 4.978-.258 3.146 2.024 6.296 4.249 8.283 2.508 2.241 9.472 4.411 10.027 4.582-1.241 3.881-2.199 7.964-2.942 12.149-.427 2.392-.782 4.816-1.109 7.249l-.058-2.288c-.513-3.96-3.833-11.311-8.23-12.124-3.169-.586-5.852 1.896-6.104 4.977-.258 3.147 2.024 6.296 4.248 8.283 2.257 2.016 8.157 3.986 9.725 4.486l-.352 2.803-1.693 13.349c-.225 1.544-.503 3.055-.776 4.569l-.054-1.983c-.513-3.961-3.833-11.311-8.231-12.124-3.168-.586-5.852 1.896-6.104 4.978-.258 3.146 2.024 6.296 4.249 8.283 2.154 1.924 7.583 3.791 9.444 4.394-.327 1.541-.65 3.086-1.036 4.565-.287 1.004-.492 1.99-.836 2.983l-.949 2.94-2.055 5.541-1.435 3.61c.242-1.533.652-4.547.658-4.802.061-2.653-.881-6.966-2.756-9.997a6.29 6.29 0 0 0-.073-1.171c-.491-3.052-3.358-5.319-6.471-4.489-4.322 1.151-7.063 8.736-7.267 12.724-.012.235.142 2.803.266 4.421l-.654-2.82c-.453-1.911-.961-3.805-1.501-5.846l-.895-2.957c-.277-.994-.697-2.008-1.044-3.023-.855-2.337-1.835-4.663-2.874-6.986 1.673-.401 7.592-1.91 9.97-3.734 2.366-1.815 4.876-4.786 4.853-7.943-.022-3.091-2.512-5.766-5.716-5.418-4.446.483-8.305 7.565-9.111 11.477-.051.244-.314 3.115-.428 4.696l-1.952-4.169c-1.987-4.002-4.123-7.991-6.236-11.98l-1.915-3.67c.597-.136 7.672-1.778 10.334-3.821 2.366-1.815 4.876-4.786 4.854-7.943-.022-3.091-2.513-5.766-5.716-5.418-4.446.483-8.305 7.566-9.112 11.477-.061.295-.434 4.427-.477 5.483-1.4-2.696-2.771-5.395-4.013-8.111-1.72-3.745-3.201-7.515-4.365-11.273.278-.063 7.67-1.743 10.397-3.835 2.366-1.816 4.876-4.786 4.853-7.943-.022-3.091-2.513-5.767-5.716-5.418-4.446.483-8.304 7.566-9.112 11.476-.053.257-.341 3.407-.442 4.907l-.253.027c-1.199-4.042-1.852-8.108-2.275-11.944-.249-2.221-.364-4.358-.428-6.44 1.409-.171 7.839-1.027 10.501-2.64 2.552-1.545 5.372-4.222 5.697-7.362.317-3.075-1.865-6.008-5.086-6.013-4.472-.008-9.085 6.608-10.317 10.407-.067.206-.515 2.382-.82 3.971l-.043-2.81c.006-3.382.22-6.478.432-9.219.133-1.558.284-2.964.439-4.277 1.295-.89 6.467-4.541 8.058-7.15 1.553-2.546 2.823-6.223 1.663-9.159-1.136-2.875-4.423-4.473-7.285-2.993-3.973 2.054-5.018 10.051-4.361 13.99.057.34 1.557 5.562 1.626 5.516l.078-.054c-.175 1.261-.348 2.616-.506 4.099-.272 2.742-.554 5.842-.634 9.237-.088 3.392-.089 7.081.261 10.965.346 3.895.908 7.974 2.031 12.102.013.047.032.094.045.14-.703-1.105-2.774-4.13-2.959-4.344-2.613-3.02-9.437-7.319-13.553-5.572-2.966 1.26-3.835 4.81-2.345 7.519 1.521 2.766 5.161 4.134 8.113 4.565 3.329.485 10.334-1.546 10.891-1.71 1.106 3.922 2.559 7.856 4.249 11.756.963 2.231 2.003 4.449 3.074 6.658l-1.311-1.876c-2.613-3.02-9.437-7.319-13.554-5.571-2.966 1.259-3.834 4.81-2.345 7.519 1.52 2.767 5.161 4.135 8.113 4.565 2.995.436 9.002-1.175 10.586-1.623l1.252 2.532 5.952 12.067c.664 1.412 1.266 2.826 1.874 4.24l-1.139-1.624c-2.613-3.02-9.436-7.319-13.553-5.571-2.966 1.26-3.834 4.81-2.345 7.519 1.521 2.766 5.161 4.134 8.113 4.564 2.858.417 8.416-1.021 10.301-1.544.578 1.466 1.16 2.933 1.654 4.379.315.996.688 1.932.949 2.949l.83 2.976 1.343 5.755.795 3.803c-.644-1.413-1.964-4.152-2.101-4.368-2.125-3.381-8.219-8.665-12.553-7.561-3.122.796-4.519 4.174-3.457 7.077 1.084 2.965 4.475 4.869 7.328 5.741 3.141.96 10.094.083 10.962-.033l1.135 6.019c.575 3.258 1.04 6.255 1.419 8.928h2.885c-.455-2.8-1.012-5.961-1.699-9.415-.415-2.111-.9-4.359-1.42-6.663.522-.208 3.488-1.407 6.115-2.875 2.289 2.478 8.154 5.38 8.914 5.749l-2.373 5.646-3.426 7.558h3.097l2.769-6.527c.819-1.99 1.655-4.132 2.492-6.341.841.176 7.725 1.574 10.933.85 2.909-.657 6.433-2.303 7.735-5.179 1.275-2.816.134-6.289-2.921-7.315-4.239-1.424-10.71 3.39-13.081 6.604-.14.19-1.427 2.416-2.217 3.834l1.011-2.713c.677-1.844 1.298-3.705 1.973-5.704l.885-2.96c.317-.981.527-2.059.797-3.098.576-2.421 1.043-4.902 1.457-7.412 1.616.589 7.386 2.596 10.375 2.386 2.975-.209 6.708-1.302 8.43-3.948 1.687-2.591 1.085-6.196-1.779-7.673-3.975-2.05-11.1 1.729-13.931 4.546-.177.175-1.98 2.425-2.947 3.68l.672-4.553c.551-4.434.97-8.94 1.408-13.432l.428-4.118c.572.216 7.38 2.75 10.727 2.514 2.975-.208 6.708-1.302 8.431-3.948 1.686-2.59 1.085-6.196-1.779-7.673-3.975-2.05-11.1 1.729-13.931 4.546-.213.212-2.804 3.453-3.423 4.309.319-3.021.665-6.028 1.127-8.979.632-4.073 1.476-8.034 2.578-11.811.266.101 7.359 2.778 10.787 2.537 2.975-.209 6.708-1.302 8.431-3.948 1.687-2.59 1.085-6.196-1.778-7.673-3.975-2.05-11.1 1.729-13.931 4.546-.186.185-2.162 2.651-3.075 3.847l-.227-.118c1.229-4.032 2.928-7.782 4.69-11.214 1.018-1.99 2.101-3.835 3.196-5.607 1.27.634 7.105 3.467 10.214 3.592 2.98.119 6.81-.557 8.813-2.997 1.961-2.39 1.759-6.04-.925-7.822-3.726-2.474-11.223.5-14.345 2.989-.17.135-1.744 1.702-2.875 2.86l1.514-2.368c1.871-2.817 3.757-5.282 5.446-7.451.97-1.226 1.872-2.315 2.726-3.325 1.571-.028 7.898-.22 10.665-1.519 2.699-1.268 5.787-3.633 6.44-6.722.643-3.025-1.218-6.172-4.422-6.516zM23.257 235.889c3.209 1.402 11.059 1.225 11.065 1.225.082-.002-1.687-5.139-1.836-5.45-1.723-3.603-7.169-9.552-11.601-8.953-3.193.432-4.968 3.627-4.247 6.633.736 3.07 3.886 5.351 6.619 6.545zm79.399 1.727c.069.044 1.427-5.217 1.475-5.558.551-3.955-.71-11.922-4.737-13.867-2.901-1.401-6.144.284-7.201 3.189-1.08 2.967.289 6.607 1.91 9.111 1.903 2.939 8.548 7.122 8.553 7.125z"/><path d="M126.085 209.17c-4.447-.479-9.73 5.615-11.355 9.263-.14.316-1.77 5.499-1.687 5.498l.095-.001a131.32 131.32 0 0 0-2.684 3.139c-1.739 2.137-3.685 4.567-5.624 7.355-1.945 2.781-3.98 5.857-5.831 9.29-1.86 3.439-3.641 7.151-4.982 11.214-.015.046-.025.096-.04.142.023-1.31-.035-4.975-.072-5.256-.513-3.96-3.833-11.311-8.23-12.124-3.168-.585-5.852 1.897-6.104 4.978-.258 3.146 2.024 6.296 4.248 8.283 2.508 2.241 9.472 4.411 10.027 4.582-1.241 3.881-2.199 7.964-2.942 12.149a169.07 169.07 0 0 0-1.109 7.249l-.058-2.288c-.514-3.961-3.833-11.311-8.23-12.124-3.169-.586-5.852 1.896-6.104 4.977-.258 3.147 2.024 6.296 4.248 8.283 2.257 2.016 8.157 3.986 9.725 4.486l-.352 2.803-1.693 13.349c-.225 1.544-.503 3.056-.776 4.569l-.054-1.983c-.514-3.961-3.833-11.311-8.231-12.124-3.168-.586-5.852 1.896-6.104 4.978-.258 3.146 2.024 6.296 4.249 8.283 2.154 1.924 7.583 3.791 9.444 4.394-.327 1.541-.65 3.086-1.036 4.565-.287 1.004-.492 1.991-.836 2.983l-.949 2.94-2.054 5.541-1.435 3.61c.242-1.533.652-4.546.658-4.802.062-2.653-.881-6.966-2.756-9.997a6.29 6.29 0 0 0-.073-1.171c-.491-3.052-3.358-5.319-6.471-4.489-4.322 1.151-7.063 8.736-7.267 12.724-.012.235.142 2.802.266 4.421l-.654-2.82c-.453-1.911-.961-3.805-1.501-5.846l-.895-2.957c-.277-.994-.697-2.008-1.044-3.023-.855-2.337-1.835-4.664-2.874-6.986 1.673-.401 7.592-1.91 9.97-3.734 2.366-1.815 4.876-4.786 4.853-7.943-.022-3.091-2.512-5.766-5.716-5.418-4.446.483-8.305 7.566-9.111 11.477-.051.244-.314 3.115-.428 4.696l-1.951-4.169c-1.987-4.002-4.123-7.991-6.236-11.98l-1.915-3.67c.597-.136 7.672-1.778 10.334-3.821 2.366-1.815 4.876-4.786 4.854-7.943-.022-3.091-2.513-5.766-5.716-5.418-4.446.483-8.305 7.566-9.112 11.477-.061.295-.434 4.427-.477 5.483-1.4-2.696-2.771-5.395-4.013-8.111-1.72-3.745-3.201-7.515-4.365-11.273.278-.063 7.67-1.743 10.397-3.835 2.366-1.816 4.876-4.786 4.853-7.943-.022-3.091-2.513-5.767-5.716-5.419-4.446.483-8.304 7.566-9.111 11.476-.053.257-.341 3.407-.442 4.907l-.253.027c-1.199-4.042-1.852-8.107-2.275-11.943-.249-2.221-.364-4.358-.428-6.44 1.409-.171 7.839-1.027 10.501-2.64 2.551-1.545 5.372-4.222 5.697-7.362.317-3.075-1.864-6.008-5.086-6.014-4.472-.008-9.085 6.608-10.317 10.407-.067.206-.515 2.382-.82 3.971l-.043-2.81c.006-3.382.22-6.478.432-9.219.133-1.558.284-2.964.439-4.277 1.295-.89 6.467-4.541 8.058-7.15 1.553-2.546 2.822-6.222 1.663-9.159-1.136-2.875-4.423-4.473-7.285-2.993-3.973 2.054-5.018 10.051-4.361 13.99.057.34 1.557 5.562 1.625 5.516l.078-.054c-.175 1.261-.347 2.616-.506 4.099-.272 2.742-.554 5.842-.634 9.237-.088 3.392-.089 7.081.261 10.965.346 3.895.908 7.974 2.031 12.102.013.047.032.094.045.14-.703-1.105-2.774-4.13-2.959-4.344-2.613-3.02-9.437-7.32-13.553-5.572-2.966 1.26-3.835 4.81-2.345 7.519 1.521 2.766 5.161 4.134 8.113 4.565 3.329.485 10.334-1.546 10.891-1.71 1.106 3.922 2.559 7.856 4.249 11.756.963 2.231 2.003 4.449 3.074 6.658l-1.311-1.876c-2.613-3.02-9.437-7.319-13.554-5.572-2.966 1.259-3.834 4.81-2.345 7.519 1.52 2.767 5.161 4.135 8.113 4.565 2.995.436 9.002-1.175 10.586-1.623l1.252 2.532 5.952 12.068c.664 1.412 1.266 2.826 1.874 4.24l-1.139-1.624c-2.613-3.02-9.437-7.319-13.553-5.571-2.966 1.259-3.834 4.81-2.345 7.519 1.521 2.766 5.161 4.134 8.113 4.564 2.858.417 8.416-1.021 10.301-1.544.578 1.466 1.16 2.933 1.654 4.379.315.996.688 1.932.949 2.949l.83 2.976 1.343 5.755.795 3.803c-.644-1.413-1.964-4.152-2.101-4.368-2.125-3.381-8.219-8.665-12.553-7.56-3.122.796-4.519 4.173-3.457 7.077 1.084 2.965 4.475 4.869 7.328 5.741 3.141.96 10.094.083 10.962-.033l1.135 6.018c.575 3.258 1.04 6.255 1.419 8.928h2.884c-.455-2.8-1.012-5.961-1.699-9.415-.415-2.111-.9-4.359-1.42-6.663.522-.208 3.488-1.407 6.115-2.875 2.289 2.478 8.154 5.38 8.914 5.749l-2.373 5.646-3.426 7.558h3.097l2.769-6.527c.819-1.99 1.655-4.132 2.492-6.341.841.176 7.725 1.574 10.933.85 2.909-.657 6.433-2.303 7.735-5.179 1.275-2.816.134-6.289-2.92-7.315-4.239-1.424-10.71 3.391-13.081 6.604-.14.19-1.427 2.416-2.217 3.834l1.011-2.713c.677-1.844 1.298-3.704 1.973-5.704l.885-2.96c.317-.981.527-2.059.797-3.098.576-2.421 1.043-4.902 1.457-7.412 1.617.589 7.386 2.596 10.375 2.386 2.975-.209 6.708-1.302 8.43-3.948 1.687-2.591 1.085-6.196-1.779-7.673-3.975-2.05-11.1 1.729-13.931 4.546-.176.175-1.98 2.425-2.947 3.68l.672-4.553c.551-4.434.97-8.94 1.408-13.432l.428-4.118c.572.216 7.38 2.75 10.727 2.514 2.975-.208 6.708-1.302 8.43-3.948 1.686-2.591 1.085-6.196-1.779-7.673-3.974-2.05-11.1 1.729-13.93 4.546a120.08 120.08 0 0 0-3.423 4.31c.319-3.021.665-6.028 1.127-8.979.632-4.073 1.476-8.034 2.578-11.811.266.101 7.359 2.778 10.787 2.537 2.976-.209 6.708-1.302 8.431-3.948 1.687-2.59 1.085-6.196-1.778-7.673-3.975-2.05-11.1 1.729-13.931 4.546-.186.185-2.162 2.651-3.075 3.847l-.227-.118c1.229-4.032 2.928-7.782 4.69-11.214 1.018-1.99 2.101-3.835 3.196-5.607 1.27.634 7.105 3.467 10.214 3.592 2.98.119 6.81-.557 8.813-2.997 1.961-2.39 1.759-6.04-.925-7.822-3.726-2.474-11.223.5-14.345 2.989-.17.135-1.744 1.702-2.875 2.86l1.514-2.368c1.871-2.817 3.757-5.282 5.446-7.451.97-1.226 1.872-2.315 2.726-3.325 1.571-.028 7.899-.22 10.665-1.519 2.699-1.268 5.787-3.633 6.44-6.722.642-3.025-1.219-6.172-4.423-6.516z"/></g><g class="C E F"><path d="M451.683 449.426H55.809V202.924a10.46 10.46 0 0 1 10.456-10.456h374.963a10.46 10.46 0 0 1 10.456 10.456v246.502z" class="D"/><path d="M71.868 212.543h363.755v205.566H71.868z" fill="none"/><path d="M118.62 437.056h272.066v13.405H118.62z" class="B"/><path d="M118.62 443.51h272.066v6.951H118.62z" class="D"/><path d="M23.795 458.405s4.468 5.461 17.873 9.929H467.64s9.929-2.483 14.398-9.433l-458.243-.496z" class="B"/><path d="M481.105 459.062H24.78c-1.046 0-1.895-.848-1.895-1.895v-6.65c0-1.046.848-1.895 1.895-1.895h456.325c1.046 0 1.895.848 1.895 1.895v6.649c0 1.048-.848 1.896-1.895 1.896zM257.136 200.24c0-1.919-1.556-3.475-3.475-3.475s-3.475 1.556-3.475 3.475 1.556 3.475 3.475 3.475 3.475-1.556 3.475-3.475z" class="D"/><path d="M10 468.334h487" fill="none" class="H"/><path d="M285.222 251.124a10.43 10.43 0 0 0 2.865-9.384l-6.544 6.544c-.774.774-2.029.774-2.804 0l-5.441-5.441c-.774-.774-.774-2.029 0-2.803l6.544-6.544a10.43 10.43 0 0 0-9.384 2.865c-3.019 3.019-3.8 7.427-2.347 11.167l-16.9 16.485-1.631-1.631 2.658-2.658a.73.73 0 0 0 0-1.029l-2.058-2.058a.73.73 0 0 0-1.029 0l-1.029 1.029-2.23-2.23.857-.858a.97.97 0 0 0 0-1.372l-18.438-18.438a4.73 4.73 0 0 0-6.689 0l-1.887 1.887a4.73 4.73 0 0 0 0 6.689l18.438 18.438a.97.97 0 0 0 1.372 0l.858-.858 2.23 2.23-1.029 1.029a.73.73 0 0 0 0 1.029l2.058 2.058a.73.73 0 0 0 1.029 0l2.658-2.658 1.603 1.603-14.01 13.667c-3.74-1.453-8.148-.672-11.167 2.347a10.43 10.43 0 0 0-2.865 9.384l6.544-6.544c.774-.774 2.029-.774 2.804 0l5.441 5.441c.774.774.774 2.029 0 2.804l-6.544 6.544a10.43 10.43 0 0 0 9.384-2.865c3.019-3.019 3.8-7.427 2.347-11.167l14.01-13.667L274 291.26a3.91 3.91 0 0 0 .879 4.181l4.609 4.609 5.531-5.531-4.609-4.609a3.91 3.91 0 0 0-4.181-.879l-19.074-19.074 16.9-16.485c3.74 1.452 8.148.671 11.167-2.348z" class="B"/></g><path d="M226.332 326.592c0 1.979.786 3.173 2.576 3.173 1.76 0 2.545-1.194 2.545-3.173v-16.809h2.294v16.683c0 3.33-1.54 5.561-4.933 5.561-3.361 0-4.901-2.23-4.901-5.561v-16.683h2.419v16.809z" class="B"/><use href="#B" class="B"/><path d="M254.165 309.783c3.424 0 4.995 2.073 4.995 5.467v11.09c0 3.362-1.571 5.436-4.995 5.436h-5.153v-21.992h5.153zm-.032 19.762c1.76 0 2.608-1.1 2.608-3.11v-11.311c0-2.011-.849-3.11-2.64-3.11h-2.639v17.531h2.671zm15.142-10.023v2.199h-5.373v7.823h6.598v2.23h-9.048v-21.992h9.048v2.23h-6.598v7.509h5.373zm8.386-9.739c3.456 0 4.901 1.759 4.901 5.026v1.791c0 2.419-.849 3.927-2.733 4.524 2.011.597 2.765 2.23 2.765 4.587v3.425c0 .974.031 1.885.439 2.639h-2.482c-.282-.628-.408-1.194-.408-2.671v-3.456c0-2.481-1.162-3.267-3.204-3.267h-1.729v9.394h-2.45v-21.992h4.901zm-.629 10.367c1.948 0 3.11-.628 3.11-3.016v-2.105c0-1.978-.723-3.016-2.545-3.016h-2.388v8.137h1.823zm-81.75 39.848v1.979h-2.325v-2.105c0-1.979-.786-3.173-2.577-3.173-1.759 0-2.576 1.193-2.576 3.173v11.625c0 1.979.817 3.173 2.576 3.173 1.791 0 2.577-1.194 2.577-3.173v-2.859h2.325v2.733c0 3.33-1.571 5.529-4.964 5.529-3.362 0-4.933-2.199-4.933-5.529v-11.373c0-3.33 1.571-5.53 4.933-5.53 3.393-.001 4.964 2.2 4.964 5.53zm2.04 0c0-3.362 1.665-5.53 5.027-5.53 3.393 0 5.058 2.168 5.058 5.53v11.373c0 3.33-1.665 5.529-5.058 5.529-3.362 0-5.027-2.199-5.027-5.529v-11.373zm2.419 11.499c0 2.011.848 3.173 2.608 3.173 1.79 0 2.607-1.162 2.607-3.173v-11.625c0-1.979-.817-3.173-2.607-3.173-1.76 0-2.608 1.193-2.608 3.173v11.625z" class="B"/><use href="#B" x="-26.434" y="44.905" class="B"/><path d="M232.098 359.966v.597h-2.325v-.723c0-1.979-.754-3.142-2.513-3.142s-2.514 1.162-2.514 3.11c0 4.933 7.383 5.403 7.383 11.593 0 3.33-1.602 5.498-4.964 5.498s-4.933-2.168-4.933-5.498v-1.257h2.294v1.383c0 1.979.817 3.142 2.576 3.142s2.576-1.162 2.576-3.142c0-4.901-7.352-5.373-7.352-11.562 0-3.393 1.571-5.499 4.87-5.499 3.331.001 4.902 2.169 4.902 5.5z" class="B"/><use href="#C" class="B"/><path d="M250.567 354.688c3.456 0 4.901 1.759 4.901 5.026v1.791c0 2.419-.849 3.927-2.733 4.524 2.011.597 2.765 2.23 2.765 4.587v3.425c0 .974.031 1.885.44 2.639h-2.482c-.283-.628-.408-1.194-.408-2.671v-3.456c0-2.481-1.163-3.267-3.205-3.267h-1.728v9.394h-2.451v-21.992h4.901zm-.628 10.367c1.947 0 3.11-.628 3.11-3.016v-2.105c0-1.978-.723-3.016-2.545-3.016h-2.388v8.137h1.823zm10.429 6.442c0 1.979.785 3.173 2.576 3.173 1.759 0 2.545-1.194 2.545-3.173v-16.809h2.293v16.683c0 3.33-1.539 5.561-4.933 5.561-3.361 0-4.901-2.23-4.901-5.561v-16.683h2.42v16.809zm19.54-11.499v1.979h-2.325v-2.105c0-1.979-.785-3.173-2.576-3.173-1.759 0-2.576 1.193-2.576 3.173v11.625c0 1.979.817 3.173 2.576 3.173 1.791 0 2.576-1.194 2.576-3.173v-2.859h2.325v2.733c0 3.33-1.571 5.529-4.964 5.529-3.362 0-4.933-2.199-4.933-5.529v-11.373c0-3.33 1.57-5.53 4.933-5.53 3.393-.001 4.964 2.2 4.964 5.53z" class="B"/><use href="#C" x="47.873" class="B"/><path d="M295.99 354.688v21.992h-2.45v-21.992h2.45zm2.324 5.31c0-3.362 1.665-5.53 5.026-5.53 3.394 0 5.059 2.168 5.059 5.53v11.373c0 3.33-1.665 5.529-5.059 5.529-3.361 0-5.026-2.199-5.026-5.529v-11.373zm2.419 11.499c0 2.011.849 3.173 2.607 3.173 1.791 0 2.608-1.162 2.608-3.173v-11.625c0-1.979-.817-3.173-2.608-3.173-1.759 0-2.607 1.193-2.607 3.173v11.625zm12.158 5.183h-2.199v-21.992h3.11l5.09 15.897v-15.897h2.167v21.992h-2.545l-5.623-17.782v17.782z" class="B"/><path d="M171.719 337.616h159.518v9.508H171.719z" class="G"/><g class="B"><use href="#D"/><path d="M331.237 347.123v-8.581l-4.914 8.581z"/><use href="#D" x="21.656"/><use href="#D" x="-21.657"/><path d="M174.728 347.123h10.623l5.445-9.507h-10.623zm146.006-9.507h-10.623l-5.444 9.507h10.623z"/><use href="#D" x="43.313"/><use href="#D" x="64.969"/></g><g class="C E F"><path d="M99.242 357.751L71.923 462.118h60.923l-27.318-104.367c-1.094-3.338-5.193-3.338-6.286 0z" class="G"/><path d="M71.923 462.118h49.642l-24.821-94.825z" class="B"/><path d="M139 468.334H63a4 4 0 0 1-4-4v-.506a4 4 0 0 1 4-4h76a4 4 0 0 1 4 4v.506a4 4 0 0 1-4 4z" class="G"/><path d="M116.989 464.334v-.506a4 4 0 0 0-4-4H63a4 4 0 0 0-4 4v.506a4 4 0 0 0 4 4h49.989a4 4 0 0 0 4-4z" class="B"/><path d="M82.821 420.486h39.128l-4.732-18.076H87.552z" class="D"/><path d="M82.821 420.486h27.846l-4.731-18.076H87.552z" fill="#bababa"/></g><path d="M327.563 192.102l-35.15-57.891-77.689.851-34.618 57.04z" opacity=".3" class="D"/><g class="E"><path d="M179.69 192.469H66.264a10.46 10.46 0 0 0-10.456 10.456v197.89L179.69 192.469zm148.112 0h113.425a10.46 10.46 0 0 1 10.456 10.456v197.89L327.802 192.469z" fill="gray" class="C"/><g class="F"><circle transform="matrix(.7071 -.7071 .7071 .7071 -19.4535 218.3757)" cx="253.876" cy="132.67" r="8.766" class="D"/><path d="M254.126 61.844V20.872" fill="none" stroke-width="2" class="C H"/></g></g><path d="M254.126 88.901V61.844" fill="none" stroke="gray" stroke-width="2" class="C"/><g class="E C"><path d="M240.544 88.901l-27.076 46.897h80.763l-27.076-46.897z" stroke-width=".973" class="G"/><g class="F"><path d="M243.258 88.901l-21.552 46.897h64.287l-21.552-46.897z" class="B"/><g fill="none" class="H"><path d="M213.468 135.798L40 427.618m254.422-291.82l171.046 289.103"/><path d="M71.868 374.308V212.543h95.439m172.604 0h95.713v162.583"/></g></g></g><defs ><path id="B" d="M238.331 331.775h-2.199v-21.992h3.11l5.09 15.897v-15.897h2.168v21.992h-2.545l-5.624-17.782v17.782z"/><path id="C" d="M237.468 376.68v-19.762h-4.053v-2.23h10.557v2.23h-4.053v19.762h-2.451z"/><path id="D" d="M234.109 337.616h-10.623l-5.445 9.507h10.623z"/></defs></svg>